# xmcd CD database file
#
# Track frame offsets:
#	150
#	20345
#	36707
#
# Disc length: 757 seconds
#
# Revision: 1
# Processed by: cddbd v1.5PL3 Copyright (c) Steve Scherf et al.
# Submitted via: CDex 1.51
#
DISCID=2102f303
DTITLE=クールドライブメーカーズ - アゲハチョウ
DYEAR=2000
DGENRE=JPop
TTITLE0=アゲハチョウ
TTITLE1=King
TTITLE2=アゲハチョウ (Instrumental)
EXTD=YEAR: 2000
EXTT0=
EXTT1=
EXTT2=
PLAYORDER=
